<?xml version="1.0" encoding="iso-8859-1"?>
<!-- Generator: Adobe Illustrator 19.0.0, SVG Export Plug-In . SVG Version: 6.00 Build 0)  -->
<svg version="1.1" id="Capa_1" xmlns="http://www.w3.org/2000/svg" xmlns:xlink="http://www.w3.org/1999/xlink" x="0px" y="0px"
	 viewBox="0 0 412.723 412.723" style="enable-background:new 0 0 412.723 412.723;" xml:space="preserve">
<path id="XMLID_773_" d="M269.378,60.42H42.724c-3.866,0-7-3.134-7-7s3.134-7,7-7h226.654c3.866,0,7,3.134,7,7
	S273.244,60.42,269.378,60.42z M136.531,106.692c0-3.866-3.134-7-7-7H51.946c-3.866,0-7,3.134-7,7s3.134,7,7,7h77.585
	C133.397,113.692,136.531,110.558,136.531,106.692z M144.258,308.505c0,3.866-3.134,7-7,7H85.278c-0.286,0-2.982,0-4.949-2.05
	L2.05,235.177c-1.313-1.313-2.05-3.093-2.05-4.95V27.873C0,14.383,10.977,3.408,24.469,3.408h263.165
	c13.49,0,24.466,10.975,24.466,24.465v116.679c0,3.866-3.134,7-7,7s-7-3.134-7-7V27.873c0-5.771-4.695-10.465-10.466-10.465H24.469
	C18.696,17.408,14,22.103,14,27.873v195.353h53.814c13.49,0,24.466,10.975,24.466,24.465v53.813h44.978
	C141.124,301.505,144.258,304.639,144.258,308.505z M78.28,247.692c0-5.771-4.695-10.465-10.466-10.465H23.898l54.382,54.381
	V247.692z M51.946,127.648c-3.866,0-7,3.134-7,7s3.134,7,7,7h24.921c3.866,0,7-3.134,7-7s-3.134-7-7-7H51.946z M246.016,260.18
	h56.88c3.866,0,7-3.134,7-7s-3.134-7-7-7h-56.88c-3.866,0-7,3.134-7,7S242.149,260.18,246.016,260.18z M313.246,274.137h-77.583
	c-3.866,0-7,3.134-7,7s3.134,7,7,7h77.583c3.866,0,7-3.134,7-7S317.112,274.137,313.246,274.137z M398.008,289.725
	c-20.95,29.921-38.344,52.694-54.741,71.667c-28.984,33.542-49.022,47.425-69.165,47.92c-0.057,0.001-0.114,0.002-0.172,0.002
	s-0.115,0-0.172-0.002c-20.142-0.496-40.18-14.379-69.165-47.921c-16.394-18.972-33.788-41.744-54.74-71.667
	c-6.921-9.884-11.46-20.914-13.49-32.786c-0.157-0.81-0.556-4.016,1.975-6.337l85.882-85.883c2.577-2.65,5.556-2.139,6.365-1.979
	c16.48,2.868,31.606,10.671,43.345,22.24c27.564-27.176,71.735-31.393,104.008-8.831c0.017,0.012,0.034,0.023,0.051,0.036
	C414.809,201.968,423.79,252.901,398.008,289.725z M159.101,249.638c12.665-0.563,24.895-4.68,35.456-12.077
	c17.144-12.004,27.552-31.425,28.622-52.002L159.101,249.638z M370.006,187.688c-0.017-0.012-0.033-0.023-0.051-0.035
	c-28.547-19.99-68.362-14.66-90.643,12.137c-1.33,1.6-3.303,2.525-5.383,2.525s-4.053-0.925-5.383-2.525
	c-8.207-9.872-19.114-17.151-31.345-21.046c1.106,27.547-11.829,54.33-34.615,70.284c-14.813,10.375-32.346,15.409-50.23,14.594
	c2.039,6.415,5.038,12.466,8.965,18.073c20.673,29.524,37.789,51.94,53.865,70.543c25.668,29.704,43.251,42.602,58.743,43.074
	c15.492-0.472,33.076-13.37,58.744-43.074c16.079-18.605,33.195-41.021,53.865-70.543
	C407.883,251.212,400.462,209.053,370.006,187.688z M286.916,302.093h-24.92c-3.866,0-7,3.134-7,7s3.134,7,7,7h24.92
	c3.866,0,7-3.134,7-7S290.782,302.093,286.916,302.093z"/>
<g>
</g>
<g>
</g>
<g>
</g>
<g>
</g>
<g>
</g>
<g>
</g>
<g>
</g>
<g>
</g>
<g>
</g>
<g>
</g>
<g>
</g>
<g>
</g>
<g>
</g>
<g>
</g>
<g>
</g>
</svg>
