<?xml version="1.0" encoding="iso-8859-1"?>
<!-- Generator: Adobe Illustrator 17.1.0, SVG Export Plug-In . SVG Version: 6.00 Build 0)  -->
<!DOCTYPE svg PUBLIC "-//W3C//DTD SVG 1.1//EN" "http://www.w3.org/Graphics/SVG/1.1/DTD/svg11.dtd">
<svg version="1.1" id="Capa_1" xmlns="http://www.w3.org/2000/svg" xmlns:xlink="http://www.w3.org/1999/xlink" x="0px" y="0px"
	 viewBox="0 0 297.696 297.696" style="enable-background:new 0 0 297.696 297.696;" xml:space="preserve">
<g>
	<path d="M166.529,198.529c-2.929,2.929-2.929,7.678,0,10.606c2.929,2.93,7.678,2.929,10.606,0l56.236-56.236
		c16.75-16.75,16.75-44.003-0.002-60.756l-0.504-0.504c-8.113-8.114-18.901-12.583-30.376-12.583
		c-11.475,0-22.263,4.469-30.376,12.583l-23.264,23.264L125.584,91.64c-8.113-8.114-18.901-12.583-30.376-12.583
		c-11.475,0-22.263,4.469-30.374,12.58l-0.51,0.509c-16.749,16.75-16.749,44.003,0,60.753l79.101,79.1
		c1.464,1.464,3.384,2.197,5.303,2.197c0.04,0,0.08,0,0.12-0.001c1.957,0.031,3.938-0.705,5.434-2.207
		c2.923-2.935,2.914-7.684-0.021-10.606l-0.12-0.12c-0.383-0.382-0.797-0.713-1.234-0.995l-77.975-77.975
		c-10.901-10.901-10.901-28.639-0.003-39.538l0.509-0.509c5.281-5.281,12.302-8.189,19.77-8.189c7.468,0,14.489,2.908,19.77,8.189
		l28.567,28.567c2.929,2.929,7.678,2.929,10.606,0l28.567-28.567c5.281-5.281,12.302-8.189,19.77-8.189
		c7.468,0,14.489,2.908,19.772,8.191l0.504,0.504c10.901,10.901,10.901,28.639,0,39.541L166.529,198.529z"/>
	<path d="M148.848,0C67.516,0,1.348,66.168,1.348,147.5c0,26.079,6.907,51.711,19.974,74.127c2.086,3.579,6.678,4.787,10.257,2.702
		c3.578-2.086,4.788-6.678,2.702-10.257c-11.732-20.125-17.933-43.146-17.933-66.573c0-73.061,59.439-132.5,132.5-132.5
		s132.5,59.439,132.5,132.5S221.909,280,148.848,280c-16.982,0-33.573-3.203-49.313-9.521c-1.473-0.59-3.094-0.699-4.631-0.311
		l-38.284,9.676l6.537-25.862c1.015-4.016-1.418-8.094-5.434-9.109c-4.021-1.014-8.094,1.418-9.109,5.434l-9.617,38.052
		c-0.647,2.561,0.101,5.273,1.968,7.141c1.424,1.424,3.339,2.197,5.304,2.197c0.612,0,1.229-0.075,1.837-0.229l48.141-12.167
		c16.837,6.437,34.521,9.699,52.601,9.699c81.332,0,147.5-66.168,147.5-147.5S230.18,0,148.848,0z"/>
</g>
<g>
</g>
<g>
</g>
<g>
</g>
<g>
</g>
<g>
</g>
<g>
</g>
<g>
</g>
<g>
</g>
<g>
</g>
<g>
</g>
<g>
</g>
<g>
</g>
<g>
</g>
<g>
</g>
<g>
</g>
</svg>
