<?xml version="1.0" encoding="iso-8859-1"?>
<!-- Generator: Adobe Illustrator 17.1.0, SVG Export Plug-In . SVG Version: 6.00 Build 0)  -->
<!DOCTYPE svg PUBLIC "-//W3C//DTD SVG 1.1//EN" "http://www.w3.org/Graphics/SVG/1.1/DTD/svg11.dtd">
<svg version="1.1" id="Capa_1" xmlns="http://www.w3.org/2000/svg" xmlns:xlink="http://www.w3.org/1999/xlink" x="0px" y="0px"
	 viewBox="0 0 394.392 394.392" style="enable-background:new 0 0 394.392 394.392;" xml:space="preserve">
<path id="XMLID_425_" d="M57.977,245.598C23.092,204.889,5.676,168.715,6.211,138.081c0.477-27.113,11.137-52.512,30.016-71.52
	c19.04-19.17,44.393-29.727,71.388-29.727c29.355,0,57.051,12.709,76.193,34.498c19.147-21.789,46.845-34.498,76.197-34.498
	c26.995,0,52.347,10.557,71.385,29.726c18.877,19.006,29.537,44.405,30.019,71.518c0.282,16.188-4.431,34.011-14.007,52.978
	c-2.241,4.437-7.655,6.217-12.091,3.978c-4.437-2.241-6.218-7.654-3.978-12.091c8.245-16.329,12.309-31.317,12.077-44.547
	c-0.831-46.855-37.467-83.561-83.405-83.561c-27.474,0-53.187,13.541-68.782,36.222c-1.679,2.441-4.453,3.9-7.416,3.9
	c0,0,0,0-0.001,0c-2.963,0-5.737-1.459-7.416-3.902c-15.59-22.68-41.301-36.22-68.776-36.22c-45.945,0-82.582,36.705-83.407,83.562
	c-0.456,26.097,15.504,58.225,47.438,95.489c3.234,3.774,2.797,9.456-0.978,12.69c-1.697,1.454-3.78,2.166-5.852,2.166
	C62.279,248.742,59.758,247.676,57.977,245.598z M245.474,90.146c0,4.971,4.029,9,9,9c25.093,0,45.104,20.082,45.558,45.717
	c0.087,4.916,4.099,8.841,8.996,8.841c0.054,0,0.108,0,0.162-0.001c4.97-0.088,8.928-4.188,8.84-9.158
	c-0.301-16.963-6.975-32.859-18.793-44.759c-11.938-12.021-27.835-18.64-44.763-18.64C249.503,81.146,245.474,85.176,245.474,90.146
	z M356.095,244.897c2.447,13.883-12.004,26.636-45.479,40.136c-16.525,6.664-36.536,12.942-58.576,18.445
	c-22.392,20.012-43.297,36.694-58.613,48.917l-4,3.193c-1.643,1.313-3.632,1.97-5.62,1.97c-1.989,0-3.978-0.657-5.621-1.971
	l-4.004-3.198c-10.256-8.187-22.961-18.33-37.156-30.308c-15.323,1.094-29.59,1.448-42.268,1.014
	c-36.073-1.235-54.015-8.276-56.463-22.159c-0.863-4.895,2.405-9.563,7.3-10.427c4.76-0.839,9.297,2.223,10.344,6.886
	c1.813,2.144,12.8,7.313,44.415,7.835c28.08,0.456,63.906-2.871,100.884-9.391c36.976-6.52,71.783-15.64,98.011-25.68
	c29.529-11.305,38.086-19.92,39.057-22.555c-0.612-4.741,2.608-9.17,7.364-10.009C350.566,236.732,355.233,240.002,356.095,244.897z
	 M215.103,311.591c-3.554,0.681-7.136,1.339-10.74,1.975c-14.333,2.527-28.45,4.584-42.034,6.143
	c7.889,6.468,15.126,12.259,21.479,17.332C192.729,329.921,203.425,321.36,215.103,311.591z M394.111,180.283
	c-1.179-6.704-5.901-12.159-14.038-16.212c-4.447-2.216-9.852-0.407-12.068,4.042s-0.406,9.853,4.043,12.069
	c3.176,1.583,4.225,2.906,4.333,3.195c0.045,2.166-7.726,13.398-46.565,28.782c-33.442,13.246-78.602,25.256-127.157,33.817
	c-48.555,8.562-95.096,12.724-131.052,11.712c-41.759-1.172-52.905-9.068-53.596-11.071c0-0.023,0.22-2.535,6.088-7.419
	c3.82-3.18,4.339-8.854,1.159-12.675c-3.18-3.82-8.854-4.339-12.675-1.159c-9.607,7.998-13.746,16.194-12.302,24.357
	c2.811,15.937,25.25,24.406,68.601,25.891c5.531,0.189,11.3,0.258,17.289,0.21c6.577,6.544,13.675,13.316,21.124,20.154
	c1.728,1.587,3.909,2.37,6.083,2.37c2.433,0,4.858-0.98,6.633-2.914c3.361-3.662,3.118-9.355-0.544-12.716
	c-2.814-2.583-5.576-5.156-8.275-7.708c28.897-1.588,61.272-5.429,94.591-11.305c28.157-4.965,55.181-11.062,79.594-17.896
	c-0.726,0.789-1.456,1.578-2.194,2.369c-3.39,3.635-3.189,9.33,0.445,12.72c3.636,3.39,9.33,3.191,12.721-0.445
	c7.854-8.425,15.067-16.722,21.467-24.692c7.287-2.504,14.203-5.072,20.687-7.686C378.73,211.85,396.92,196.217,394.111,180.283z"/>
<g>
</g>
<g>
</g>
<g>
</g>
<g>
</g>
<g>
</g>
<g>
</g>
<g>
</g>
<g>
</g>
<g>
</g>
<g>
</g>
<g>
</g>
<g>
</g>
<g>
</g>
<g>
</g>
<g>
</g>
</svg>
