<?xml version="1.0" encoding="iso-8859-1"?>
<!-- Generator: Adobe Illustrator 19.0.0, SVG Export Plug-In . SVG Version: 6.00 Build 0)  -->
<svg version="1.1" id="Layer_1" xmlns="http://www.w3.org/2000/svg" xmlns:xlink="http://www.w3.org/1999/xlink" x="0px" y="0px"
	 viewBox="0 0 512 512" style="enable-background:new 0 0 512 512;" xml:space="preserve">
<g>
	<g>
		<path d="M509.968,300.618c-1.159-1.316-28.9-32.616-74.026-64.333C394.058,206.846,328.84,171.754,256,171.754
			s-138.058,35.092-179.942,64.532c-45.126,31.717-72.866,63.016-74.026,64.333c-2.709,3.08-2.709,7.693,0,10.773
			c1.159,1.316,28.9,32.616,74.026,64.333C117.942,405.163,183.16,440.255,256,440.255s138.058-35.092,179.943-64.532
			c45.126-31.717,72.866-63.016,74.026-64.333C512.677,308.311,512.677,303.698,509.968,300.618z M85.764,362.613
			c-32.865-23.054-56.621-46.371-66.465-56.612c9.793-10.195,33.376-33.351,66.136-56.376
			c31.831-22.372,77.671-48.148,129.663-57.718c-46.767,16.817-80.304,61.611-80.304,114.097c0,52.485,33.534,97.278,80.3,114.096
			C163.239,410.554,117.518,384.89,85.764,362.613z M151.1,306.004c0-57.842,47.058-104.9,104.9-104.9s104.9,47.058,104.9,104.9
			s-47.058,104.9-104.9,104.9S151.1,363.846,151.1,306.004z M426.566,362.383c-31.83,22.373-77.671,48.148-129.663,57.717
			c46.767-16.816,80.304-61.611,80.304-114.096s-33.534-97.278-80.3-114.096c51.856,9.546,97.577,35.21,129.331,57.486
			c32.864,23.054,56.622,46.372,66.465,56.612C482.908,316.202,459.326,339.358,426.566,362.383z"/>
	</g>
</g>
<g>
	<g>
		<path d="M338.003,272.468c-1.709-4.166-6.472-6.16-10.637-4.448c-4.166,1.709-6.157,6.471-4.448,10.637
			c3.563,8.685,5.37,17.887,5.37,27.347c0.001,4.505,3.65,8.154,8.154,8.154c4.504,0,8.153-3.649,8.153-8.153
			C344.594,294.411,342.377,283.127,338.003,272.468z"/>
	</g>
</g>
<g>
	<g>
		<path d="M318.976,243.746C302.185,226.762,279.82,217.41,256,217.41c-4.504,0-8.153,3.649-8.153,8.153
			c0,4.504,3.649,8.153,8.153,8.153c19.43,0,37.677,7.632,51.382,21.494c1.595,1.612,3.695,2.421,5.797,2.421
			c2.071,0,4.143-0.785,5.732-2.356C322.112,252.109,322.141,246.948,318.976,243.746z"/>
	</g>
</g>
<g>
	<g>
		<path d="M300.061,267.824c-8.087-4.325-22.145-6.421-44.061,6.784c-21.915-13.203-35.975-11.11-44.061-6.784
			c-10.492,5.616-16.27,17.631-16.27,33.832c0,30.319,49.836,67.646,55.518,71.804c1.433,1.048,3.123,1.572,4.813,1.572
			s3.38-0.524,4.813-1.572c5.682-4.158,55.518-41.485,55.518-71.804C316.331,285.455,310.554,273.44,300.061,267.824z
			 M255.997,356.65c-18.75-14.674-44.022-39.659-44.022-54.994c0-9.76,2.79-16.851,7.658-19.455
			c1.734-0.928,3.821-1.384,6.208-1.384c6.631,0,15.571,3.52,25.637,10.23c2.739,1.826,6.306,1.826,9.044,0
			c13.69-9.127,25.3-12.35,31.845-8.846c4.868,2.605,7.658,9.695,7.658,19.455C300.026,316.963,274.748,341.962,255.997,356.65z"/>
	</g>
</g>
<g>
	<g>
		<path d="M256,71.745c-4.504,0-8.153,3.649-8.153,8.153v56.527c0,4.504,3.649,8.153,8.153,8.153s8.153-3.649,8.153-8.153V79.898
			C264.153,75.394,260.504,71.745,256,71.745z"/>
	</g>
</g>
<g>
	<g>
		<path d="M373.13,103.13c-3.901-2.251-8.888-0.916-11.137,2.984l-28.263,48.953c-2.251,3.899-0.915,8.886,2.984,11.137
			c1.285,0.741,2.686,1.094,4.069,1.094c2.818,0,5.558-1.462,7.068-4.078l28.263-48.953
			C378.365,110.368,377.029,105.382,373.13,103.13z"/>
	</g>
</g>
<g>
	<g>
		<path d="M178.271,155.067l-28.263-48.953c-2.25-3.9-7.239-5.234-11.137-2.984c-3.899,2.251-5.235,7.238-2.984,11.137
			l28.263,48.953c1.51,2.615,4.25,4.078,7.068,4.078c1.384,0,2.786-0.352,4.069-1.094
			C179.186,163.953,180.522,158.967,178.271,155.067z"/>
	</g>
</g>
<g>
</g>
<g>
</g>
<g>
</g>
<g>
</g>
<g>
</g>
<g>
</g>
<g>
</g>
<g>
</g>
<g>
</g>
<g>
</g>
<g>
</g>
<g>
</g>
<g>
</g>
<g>
</g>
<g>
</g>
</svg>
